<svg aria-hidden="true" style="position: absolute; width: 0; height: 0; overflow: hidden;" version="1.1" xmlns="http://www.w3.org/2000/svg" xmlns:xlink="http://www.w3.org/1999/xlink">
<defs>
<symbol id="icon-search" viewBox="0 0 32 32">
<path stroke-linejoin="round" stroke-linecap="butt" stroke-miterlimit="4" stroke-width="2.6667" d="M14.667 25.333c-5.891 0-10.667-4.776-10.667-10.667s4.776-10.667 10.667-10.667c5.891 0 10.667 4.776 10.667 10.667s-4.776 10.667-10.667 10.667z"></path>
<path stroke-linejoin="round" stroke-linecap="round" stroke-miterlimit="4" stroke-width="2.6667" d="M28 28l-5.8-5.8"></path>
</symbol>
<symbol id="icon-quote" viewBox="0 0 32 32">
<path d="M8.201 17.468c1.546-0.612 2.785-0.452 3.719 0.481s1.21 2.421 0.831 4.463c-0.292 1.517-0.933 2.683-1.925 3.5-0.962 0.788-2.085 1.181-3.369 1.181-1.75 0-2.96-0.671-3.631-2.012-0.671-1.371-0.802-3.208-0.394-5.513 0.233-1.254 0.613-2.523 1.137-3.806s1.225-2.596 2.1-3.937c0.875-1.342 2.013-2.508 3.413-3.5s2.946-1.633 4.638-1.925l-0.438 4.637c-1.429 0.292-2.698 1.035-3.806 2.231-1.108 1.167-1.867 2.567-2.275 4.2zM21.37 17.468c1.546-0.612 2.785-0.452 3.719 0.481s1.21 2.421 0.831 4.463c-0.292 1.517-0.933 2.683-1.925 3.5-0.963 0.788-2.085 1.181-3.369 1.181-1.75 0-2.96-0.671-3.631-2.012-0.671-1.371-0.802-3.208-0.394-5.513 0.233-1.254 0.613-2.523 1.138-3.806s1.225-2.596 2.1-3.937 2.012-2.508 3.412-3.5c1.4-0.992 2.946-1.633 4.638-1.925l-0.438 4.637c-1.429 0.292-2.698 1.035-3.806 2.231-1.108 1.167-1.867 2.567-2.275 4.2z"></path>
</symbol>
<symbol id="icon-arrow-scrollup" viewBox="0 0 33 32">
<path d="M18.128 5.569v26.276h-2.795v-26.276l-13.138 13.138-1.977-1.977 16.513-16.512 16.512 16.512-1.977 1.977-13.138-13.138z"></path>
</symbol>
<symbol id="icon-arrow" viewBox="0 0 32 32">
<path stroke-linejoin="round" stroke-linecap="butt" stroke-miterlimit="4" stroke-width="2.9080" d="M15.994 30.54l14.54-14.54-14.54-14.54M1.454 16h29.080"></path>
</symbol>
<symbol id="icon-facebook" viewBox="0 0 32 32">
<path d="M19.52 4.64c0.24 0 0.48 0 0.96 0v3.6c-0.24 0-0.72 0-1.2 0s-0.96 0-1.2 0.24c-0.24 0.24-0.24 0.48-0.24 1.040 0 0.48 0 0.8 0 1.28h2.639v3.040h-2.639v13.2h-4.080v-13.28h-2.16v-3.040h2.16v-1.040c0-1.76 0.24-3.040 0.72-3.6 0.721-1.040 2.161-1.52 4.32-1.52 0.24 0.080 0.48 0.080 0.72 0.080z"></path>
</symbol>
<symbol id="icon-youtube" viewBox="0 0 32 32">
<path d="M24.24 6c-1.359-0.080-4.16-0.16-8.4-0.16h-0.56c-4.079 0-6.8 0.080-8.16 0.24-1.84 0.16-3.121 0.64-3.84 1.28-0.639 0.56-1.119 1.6-1.28 2.96-0.079 0.88-0.16 2.72-0.16 5.52v0.4c0 2.64 0.080 4.48 0.24 5.36 0.24 1.28 0.641 2.24 1.44 2.8 0.8 0.64 2.161 1.040 4.080 1.2 1.361 0.080 4.16 0.16 8.4 0.16h0.56c4.080 0 6.8-0.080 8.161-0.24 1.839-0.16 3.119-0.64 3.839-1.28 0.641-0.56 1.121-1.6 1.28-2.96 0.080-0.88 0.16-2.72 0.16-5.52v-0.4c0-2.64-0.079-4.48-0.24-5.36-0.24-1.28-0.639-2.24-1.44-2.8-0.8-0.64-2.16-1.040-4.080-1.2zM21.121 15.84l-8.8 5.28v-10.56l8.8 5.28z"></path>
</symbol>
<symbol id="icon-instagram" viewBox="0 0 32 32">
<path d="M28.718 10.756c-0.016-1.074-0.215-2.14-0.596-3.145-0.666-1.716-2.024-3.073-3.743-3.737-0.993-0.373-2.044-0.573-3.107-0.596-1.367-0.061-1.801-0.078-5.272-0.078-3.472 0-3.917 0-5.275 0.078-1.063 0.023-2.113 0.223-3.106 0.596-1.719 0.664-3.078 2.021-3.743 3.737-0.374 0.992-0.576 2.041-0.596 3.101-0.060 1.367-0.079 1.8-0.079 5.265s0 3.909 0.079 5.265c0.021 1.062 0.222 2.109 0.596 3.104 0.666 1.714 2.025 3.071 3.744 3.735 0.99 0.386 2.040 0.604 3.106 0.639 1.369 0.061 1.802 0.080 5.275 0.080 3.471 0 3.916 0 5.274-0.080 1.062-0.021 2.113-0.221 3.108-0.595 1.719-0.666 3.076-2.022 3.743-3.737 0.374-0.994 0.574-2.041 0.595-3.104 0.061-1.365 0.080-1.798 0.080-5.265-0.003-3.466-0.003-3.906-0.083-5.264zM15.99 22.531c-3.63 0-6.573-2.936-6.573-6.561s2.942-6.561 6.573-6.561c3.627 0 6.571 2.936 6.571 6.561s-2.944 6.561-6.571 6.561zM22.824 10.696c-0.849 0-1.532-0.684-1.532-1.53s0.683-1.53 1.532-1.53c0.846 0 1.531 0.684 1.531 1.53s-0.685 1.53-1.531 1.53z"></path>
<path d="M19.996 15.972c0 2.211-1.792 4.004-4.003 4.004-2.212 0-4.004-1.793-4.004-4.004s1.792-4.004 4.004-4.004c2.211 0 4.003 1.793 4.003 4.004z"></path>
</symbol>
<symbol id="icon-dumbbell" viewBox="0 0 32 32">
<path d="M7.359 9.143h-1.919c-0.533 0-0.961 0.459-0.961 1.029v4.457h-0.959c-0.177 0-0.32 0.154-0.32 0.343v2.057c0 0.189 0.144 0.343 0.32 0.343h0.959v4.457c0 0.57 0.428 1.029 0.961 1.029h1.919c0.533 0 0.961-0.459 0.961-1.029v-11.657c0-0.57-0.428-1.029-0.961-1.029zM28.48 14.629h-0.959v-4.457c0-0.57-0.428-1.029-0.961-1.029h-1.919c-0.533 0-0.961 0.459-0.961 1.029v11.657c0 0.57 0.428 1.029 0.961 1.029h1.919c0.533 0 0.961-0.459 0.961-1.029v-4.457h0.959c0.177 0 0.32-0.154 0.32-0.343v-2.057c0-0.189-0.144-0.343-0.32-0.343zM21.441 6.4h-1.92c-0.533 0-0.961 0.459-0.961 1.029v7.2h-5.119v-7.2c0-0.57-0.428-1.029-0.961-1.029h-1.92c-0.531 0-0.959 0.459-0.959 1.029v17.143c0 0.57 0.428 1.028 0.959 1.028h1.92c0.533 0 0.961-0.459 0.961-1.028v-7.2h5.119v7.2c0 0.57 0.428 1.028 0.961 1.028h1.92c0.531 0 0.959-0.459 0.959-1.028v-17.143c0-0.57-0.428-1.029-0.959-1.029z"></path>
</symbol>
<symbol id="icon-running" viewBox="0 0 28 32">
<path d="M27.717 9.451c-0.42-0.501-1.166-0.567-1.666-0.149l-3.283 2.757-1.508-3.74c-0.055-0.14-0.137-0.258-0.231-0.362-0.307-0.686-0.844-1.275-1.582-1.617-0.32-0.146-0.65-0.224-0.982-0.262-0.072-0.038-0.139-0.088-0.221-0.114l-5.775-1.61c-0.324-0.088-0.65-0.031-0.918 0.125-0.316 0.107-0.588 0.338-0.719 0.672l-2.174 5.592c-0.236 0.608 0.066 1.294 0.676 1.533 0.605 0.236 1.295-0.068 1.531-0.678l1.838-4.722 2.629 0.731c-0.063 0.104-0.133 0.201-0.186 0.312l-3.371 7.309c-0.049 0.107-0.074 0.217-0.109 0.328l-4.098 6.871-6.859 2.294c-0.775 0.581-0.941 1.674-0.367 2.45 0.578 0.778 1.674 0.943 2.449 0.369l7.018-2.417c0.215-0.156 0.371-0.36 0.488-0.58 0.088-0.094 0.189-0.168 0.256-0.284l2.443-4.097 4.338 3.696-4.641 5.229c-0.639 0.721-0.574 1.832 0.148 2.469 0.723 0.643 1.83 0.575 2.473-0.149l5.793-6.524c0.18-0.201 0.287-0.433 0.359-0.676 0.043-0.132 0.043-0.269 0.055-0.405 0-0.069 0.025-0.132 0.020-0.196-0.016-0.478-0.209-0.943-0.602-1.274l-3.99-3.403c0.287-0.274 0.531-0.6 0.709-0.982l2.586-5.599 0.828 2.206c0.035 0.196 0.1 0.388 0.238 0.549 0.125 0.149 0.285 0.248 0.455 0.317 0.018 0.009 0.037 0.011 0.059 0.016 0.107 0.038 0.217 0.074 0.328 0.080 0.135 0.012 0.269-0.005 0.406-0.043 0.004-0.002 0.006-0.002 0.006-0.002 0.035-0.009 0.072-0.002 0.109-0.017 0.191-0.073 0.338-0.196 0.465-0.34l4.711-3.998c0.5-0.421 0.289-1.166-0.133-1.667z"></path>
<path d="M25.061 3.301c0 1.823-1.477 3.301-3.301 3.301-1.822 0-3.301-1.478-3.301-3.301s1.479-3.301 3.301-3.301c1.824 0 3.301 1.478 3.301 3.301z"></path>
</symbol>
<symbol id="icon-mobile-menu" viewBox="0 0 32 32">
<path stroke-linejoin="round" stroke-linecap="round" stroke-miterlimit="4" stroke-width="2" d="M28 18.333h-24"></path>
<path stroke-linejoin="round" stroke-linecap="round" stroke-miterlimit="4" stroke-width="2" d="M28 13h-24"></path>
</symbol>
<symbol id="icon-heart" viewBox="0 0 32 32">
<path stroke-linejoin="round" stroke-linecap="butt" stroke-miterlimit="4" stroke-width="2.4" d="M25.408 4.556c-0.89-0.369-1.844-0.559-2.807-0.559s-1.917 0.19-2.807 0.559c-0.89 0.369-1.698 0.909-2.38 1.591l-1.413 1.413-1.413-1.413c-1.376-1.376-3.241-2.148-5.187-2.148s-3.811 0.773-5.187 2.148c-1.376 1.376-2.148 3.241-2.148 5.187s0.773 3.811 2.148 5.187l11.787 11.787 11.787-11.787c0.681-0.681 1.222-1.49 1.591-2.38s0.559-1.844 0.559-2.807c0-0.963-0.19-1.917-0.559-2.807s-0.909-1.699-1.591-2.38c-0.681-0.681-1.49-1.222-2.38-1.591z"></path>
</symbol>
<symbol id="icon-star" viewBox="0 0 32 32">
<path d="M13.618 2.932l-2.079 6.402c-0.329 1.014-1.274 1.701-2.341 1.701h-6.731c-2.385 0-3.377 3.051-1.447 4.453l5.445 3.957c0.863 0.627 1.224 1.738 0.894 2.752l-2.079 6.402c-0.738 2.268 1.858 4.154 3.788 2.752l5.445-3.956c0.863-0.627 2.031-0.627 2.894 0l5.445 3.956c1.93 1.402 4.527-0.484 3.789-2.752l-2.079-6.402c-0.329-1.014 0.031-2.125 0.894-2.752l5.445-3.957c1.93-1.402 0.938-4.453-1.447-4.453h-6.731c-1.067 0-2.012-0.687-2.341-1.701l-2.079-6.402c-0.738-2.268-3.945-2.268-4.683 0z"></path>
</symbol>
<symbol id="icon-trash" viewBox="0 0 32 32">
<path stroke-linejoin="round" stroke-linecap="butt" stroke-miterlimit="4" stroke-width="2.6" d="M10.666 8v-1.067c0-1.493 0-2.24 0.291-2.811 0.255-0.502 0.664-0.91 1.165-1.165 0.571-0.291 1.317-0.291 2.811-0.291h2.134c1.493 0 2.24 0 2.811 0.291 0.502 0.256 0.91 0.664 1.165 1.165 0.291 0.57 0.291 1.317 0.291 2.811v1.067M13.334 15.333v6.667M18.666 15.333v6.667M4 8h24M25.333 8v14.933c0 2.24 0 3.36-0.436 4.216-0.384 0.753-0.996 1.365-1.748 1.748-0.856 0.436-1.976 0.436-4.216 0.436h-5.866c-2.24 0-3.36 0-4.216-0.436-0.752-0.384-1.364-0.995-1.748-1.748-0.436-0.856-0.436-1.976-0.436-4.216v-14.933"></path>
</symbol>
<symbol id="icon-vector" viewBox="0 0 5472 32">
<path stroke-linejoin="miter" stroke-linecap="butt" stroke-miterlimit="4" stroke-width="16" d="M0 16h5472"></path>
</symbol>
<symbol id="icon-close" viewBox="0 0 32 32">
<path stroke-linejoin="round" stroke-linecap="butt" stroke-miterlimit="4" stroke-width="2.2857" d="M22.667 9.333l-13.333 13.333M9.334 9.333l13.333 13.333"></path>
</symbol>
</defs>
</svg>
